# xmcd CD database file
#
# Track frame offsets:
#	150
#	10675
#	25602
#	35230
#	45855
#	58407
#	70680
#	81307
#	97947
#	111170
#	127475
#	136695
#
# Disc length: 2006 seconds
#
# Revision: 0
# Processed by: cddbd v1.5.1PL0 Copyright (c) Steve Scherf et al.
# Submitted via: CDex 1.51
#
DISCID=9c07d40c
DTITLE=加山雄三 - ハワイの休日
DYEAR=1900
DGENRE=JPop
TTITLE0=お嫁においで
TTITLE1=ハワイで踊ろう
TTITLE2=小さな恋人
TTITLE3=霧雨の歩道
TTITLE4=君の瞳の蒼空
TTITLE5=砂と波
TTITLE6=白い浜
TTITLE7=波乗り
TTITLE8=ブライト・ホーン
TTITLE9=夕陽よ
TTITLE10=小さな旅
TTITLE11=アロハ・レイ
EXTD=
EXTT0=
EXTT1=
EXTT2=
EXTT3=
EXTT4=
EXTT5=
EXTT6=
EXTT7=
EXTT8=
EXTT9=
EXTT10=
EXTT11=
PLAYORDER=
